<svg width="374" height="151" viewBox="0 0 374 151" fill="none" xmlns="http://www.w3.org/2000/svg">
    <path d="M188 90C212.853 90 233 69.8528 233 45C233 20.1472 212.853 0 188 0C163.147 0 143 20.1472 143 45C143 69.8528 163.147 90 188 90Z" fill="url(#paint0_linear_558_3129)"/>
    <path fill-rule="evenodd" clip-rule="evenodd" d="M224.002 72.0001C216.219 77.8547 206.739 81.0135 197 80.9981C172.147 80.9981 152 60.8511 152 35.9981C151.985 26.2586 155.143 16.7794 160.998 8.99609C150.069 17.2061 143 30.2761 143 44.9981C143 69.8511 163.147 89.9981 188 89.9981C202.722 89.9981 215.792 82.9281 224.002 72.0001Z" fill="url(#paint1_linear_558_3129)"/>
    <path d="M188 65C201.807 65 213 53.8071 213 40C213 26.1929 201.807 15 188 15C174.193 15 163 26.1929 163 40C163 53.8071 174.193 65 188 65Z" fill="white"/>
    <path fill-rule="evenodd" clip-rule="evenodd" d="M207.486 55.6639C203.69 57.8561 199.383 59.0069 195 58.9999C181.193 58.9999 170 47.8069 170 33.9999C170 28.0699 172.065 22.6219 175.514 18.3359C168.034 22.6559 163 30.7409 163 39.9999C163 53.8069 174.193 64.9999 188 64.9999C195.877 64.9999 202.903 61.3569 207.486 55.6639Z" fill="black" fill-opacity="0.05"/>
    <path d="M193.5 44C198.747 44 203 39.7467 203 34.5C203 29.2533 198.747 25 193.5 25C188.253 25 184 29.2533 184 34.5C184 39.7467 188.253 44 193.5 44Z" fill="#2D2D2D"/>
    <path d="M198 34C200.209 34 202 32.2091 202 30C202 27.7909 200.209 26 198 26C195.791 26 194 27.7909 194 30C194 32.2091 195.791 34 198 34Z" fill="white"/>
    <path d="M184 73C184 73 185.112 76 188.5 76C191.888 76 193 73 193 73" stroke="white" stroke-width="2.294" stroke-linecap="round" stroke-linejoin="bevel"/>
    <path d="M12.1736 124.137C13.6376 127.919 14.7556 129.885 15.5286 130.033C15.8406 130.098 16.5566 130.131 17.6746 130.131L18.4396 130.156H19.2536C19.9936 130.156 20.5686 130.164 20.9796 130.181C23.9726 130.213 25.6916 130.403 26.1356 130.748C26.6126 131.126 26.9326 132.072 27.0976 133.585C27.2286 135.015 27.1876 135.92 26.9736 136.298C26.7606 136.643 24.8276 137.244 21.1776 138.099C17.4276 138.97 15.1176 139.307 14.2456 139.11C13.1606 138.847 11.4176 138.074 9.01559 136.791C6.43459 135.394 4.85559 134.3 4.28059 133.511C3.68859 132.688 2.95659 129.761 2.08459 124.729C1.21359 119.796 0.867587 116.869 1.04859 115.948C1.34459 114.451 2.79159 112.412 5.39059 109.83C7.85659 107.364 9.72359 105.949 10.9906 105.587C11.8606 105.341 14.4436 105.744 18.7356 106.796C22.9456 107.832 25.2386 108.564 25.6176 108.992C25.9296 109.353 25.9216 110.299 25.5926 111.828C25.2476 113.325 24.8856 114.18 24.5076 114.394C24.3756 114.459 23.5696 114.533 22.0896 114.616L21.5966 114.64L21.0536 114.665C20.6759 114.695 20.2979 114.72 19.9196 114.739L17.4776 114.912C13.0866 115.29 10.7516 115.923 10.4716 116.811C10.1266 117.88 10.6936 120.322 12.1736 124.137ZM48.5826 123.742C49.9966 122.822 50.7616 122.098 50.8766 121.572C51.0076 120.897 50.9006 119.343 50.5566 116.91C50.1766 114.295 49.7416 112.922 49.2486 112.79C48.5416 112.593 47.5056 113.02 46.1406 114.073C44.7756 115.125 44.0436 116.03 43.9446 116.786C43.8466 117.625 44.0026 119.08 44.4136 121.152C44.8416 123.34 45.2686 124.54 45.6966 124.754C46.1896 125 47.1516 124.663 48.5826 123.742ZM50.0126 102.405C52.7096 102.685 54.5026 103.129 55.3906 103.737C56.2946 104.362 57.5606 106.961 59.1896 111.532C60.7846 115.972 61.5656 118.899 61.5326 120.314C61.4996 121.679 60.4306 124.474 58.3256 128.701C56.1056 133.157 54.4206 135.509 53.2696 135.755C51.9206 136.051 49.1826 135.69 45.0546 134.67C40.8126 133.601 38.3446 132.581 37.6546 131.611C36.9316 130.575 36.1746 127.706 35.3846 123.002C34.6126 118.266 34.4066 115.282 34.7686 114.048C35.1636 112.733 36.6356 110.504 39.1846 107.364C41.7496 104.173 43.4766 102.504 44.3646 102.356C45.6466 102.126 47.5296 102.142 50.0126 102.405ZM81.1426 129.169C82.8036 128.627 83.8566 128.1 84.3006 127.59C84.5466 127.294 84.4236 126.579 83.9306 125.444C83.4866 124.425 82.8366 123.274 81.9816 121.991C81.1426 120.725 80.3536 119.697 79.6136 118.908C78.7916 118.036 78.2326 117.683 77.9366 117.847C77.5906 118.044 77.4186 119.919 77.4186 123.471C77.4186 127.023 77.5746 128.972 77.8866 129.317C78.2976 129.761 79.3836 129.712 81.1426 129.169ZM73.6926 107.191C75.1076 106.253 76.1186 105.752 76.7276 105.686C77.3356 105.637 78.6186 106.459 80.5756 108.153C82.4006 109.715 84.3906 111.672 86.5456 114.024C91.8406 119.763 94.4136 123.463 94.2656 125.124C94.1506 126.341 93.0986 128.914 91.1086 132.845C89.1346 136.775 87.8186 138.888 87.1616 139.184C86.3226 139.579 83.2316 139.538 77.8866 139.061C72.3946 138.584 69.4426 137.984 69.0316 137.26C68.6366 136.569 68.8256 131.817 69.5986 123.002C70.3556 114.353 70.8896 109.781 71.2016 109.288C71.4986 108.778 72.3276 108.079 73.6926 107.191ZM114.987 102.948C121.318 103.557 124.968 104.206 125.939 104.897C126.366 105.209 126.662 106.558 126.827 108.942C126.991 111.36 126.851 112.856 126.407 113.432C126.128 113.793 124.048 113.497 120.167 112.544L119.081 112.272L118.021 112.026C117.39 111.866 116.757 111.718 116.121 111.582C114.855 111.302 114.148 111.228 114 111.36C113.687 111.639 113.416 112.404 113.186 113.654C112.988 114.838 112.947 115.611 113.062 115.972C113.145 116.219 114.074 116.548 115.85 116.959L116.861 117.181C117.272 117.263 117.577 117.329 117.774 117.378C118.399 117.526 118.769 117.641 118.884 117.724C119.18 117.905 119.336 118.579 119.353 119.746C119.385 120.947 119.229 121.802 118.884 122.312C118.802 122.443 118.415 122.493 117.725 122.46C117.008 122.393 116.292 122.311 115.579 122.213C113.539 121.934 112.47 121.892 112.372 122.09C112.24 122.402 112.133 123.134 112.051 124.285C111.952 125.436 111.961 126.143 112.076 126.406C112.142 126.587 114.09 126.883 117.922 127.294C119.829 127.492 121.194 127.656 122.017 127.788C123.332 127.969 124.089 128.141 124.286 128.306C124.812 128.701 125.182 129.876 125.396 131.833C125.61 133.872 125.404 135.089 124.779 135.484C123.76 136.109 119.895 136.347 113.186 136.199C106.328 136.051 102.587 135.509 101.962 134.571C101.436 133.749 101.551 128.61 102.308 119.154C103.064 109.814 103.722 104.609 104.281 103.54C104.824 102.504 108.392 102.307 114.987 102.948ZM146.856 131.513C148.912 131.661 150.203 131.652 150.729 131.488C151.091 131.373 151.395 130.896 151.642 130.057C151.872 129.235 151.913 128.503 151.765 127.862C151.634 127.303 150.31 126.801 147.794 126.357C145.311 125.897 143.995 125.897 143.847 126.357C143.814 126.489 143.757 126.727 143.674 127.072C143.592 127.5 143.526 127.919 143.477 128.331C143.296 129.498 143.263 130.279 143.378 130.674C143.493 131.069 144.653 131.348 146.856 131.513ZM145.87 113.432C145.393 113.497 145.097 113.563 144.982 113.629C144.719 113.76 144.39 114.353 143.995 115.405C143.584 116.507 143.502 117.181 143.748 117.428C144.011 117.707 145.089 117.74 146.98 117.526C148.871 117.296 149.964 117.017 150.26 116.688C150.441 116.49 150.524 115.981 150.507 115.158C150.491 114.287 150.359 113.744 150.112 113.53C149.8 113.267 148.912 113.177 147.448 113.259C146.906 113.292 146.379 113.349 145.87 113.432ZM157.562 118.809C156.329 120.042 155.95 120.906 156.427 121.399C156.674 121.679 157.175 122.024 157.932 122.435L158.425 122.706L158.943 123.002C159.354 123.233 159.7 123.438 159.979 123.619C161.673 124.688 162.446 125.79 162.298 126.924C162.068 128.816 161.443 131.184 160.423 134.029C159.223 137.35 158.129 139.118 157.143 139.332C156.567 139.447 155.21 139.464 153.072 139.381C150.756 139.295 148.445 139.131 146.141 138.888C139.843 138.214 136.406 137.334 135.83 136.249C135.205 135.065 135.172 130 135.732 121.054C136.291 112.141 136.924 107.281 137.631 106.475C138.437 105.571 141.923 105.522 148.09 106.327C154.158 107.117 157.488 107.931 158.08 108.77C158.557 109.477 159.017 110.62 159.461 112.198C159.922 113.843 160.086 115.019 159.955 115.726C159.856 116.17 159.552 116.688 159.042 117.28C158.861 117.493 158.623 117.748 158.327 118.044L157.932 118.439L157.562 118.809ZM182.969 113.333C181.341 113.218 180.412 113.284 180.182 113.53C179.951 113.777 179.795 114.681 179.713 116.244C179.614 117.789 179.688 118.612 179.935 118.71C180.05 118.76 180.412 118.801 181.02 118.834C181.645 118.883 182.295 118.899 182.969 118.883C184.794 118.867 185.814 118.71 186.028 118.414C186.241 118.102 186.291 117.362 186.176 116.194C186.077 115.093 185.913 114.353 185.682 113.974C185.501 113.662 184.597 113.448 182.969 113.333ZM173.571 136.643C171.433 135.788 170.175 135.024 169.797 134.349C169.435 133.691 169.821 129.186 170.956 120.832C172.107 112.428 172.987 107.947 173.595 107.388C174.451 106.566 177.411 106.073 182.476 105.908C187.475 105.744 190.328 105.974 191.035 106.599C191.857 107.355 192.902 108.942 194.168 111.36C195.582 114.024 196.215 115.923 196.067 117.058C195.919 118.11 194.916 119.73 193.058 121.917C192.39 122.703 191.699 123.468 190.986 124.211L190.172 125.025C189.958 125.239 189.785 125.403 189.654 125.518C189.341 125.798 189.917 127.508 191.38 130.649L191.8 131.537L192.219 132.425C192.532 133.099 192.778 133.634 192.959 134.029C193.436 135.147 193.666 135.838 193.65 136.101C193.568 136.841 192.564 137.638 190.64 138.493C188.766 139.332 187.442 139.653 186.669 139.455C186.389 139.373 185.945 138.822 185.337 137.803C185.031 137.291 184.735 136.773 184.449 136.249L183.98 135.361L183.512 134.473C181.834 131.282 180.79 129.638 180.379 129.539C179.918 129.457 179.433 130.6 178.924 132.968L178.776 133.659L178.628 134.349C178.529 134.876 178.43 135.303 178.332 135.632C178.101 136.52 177.863 137.063 177.616 137.26C177.09 137.704 175.741 137.498 173.571 136.643ZM216.862 102.948C223.193 103.557 226.843 104.206 227.814 104.897C228.241 105.209 228.537 106.558 228.702 108.942C228.866 111.36 228.726 112.856 228.282 113.432C228.003 113.793 225.923 113.497 222.042 112.544L220.956 112.272L219.896 112.026C219.265 111.866 218.632 111.718 217.996 111.582C216.73 111.302 216.023 111.228 215.875 111.36C215.562 111.639 215.291 112.404 215.061 113.654C214.863 114.838 214.822 115.611 214.937 115.972C215.02 116.219 215.949 116.548 217.725 116.959L218.736 117.181C219.147 117.263 219.452 117.329 219.649 117.378C220.274 117.526 220.644 117.641 220.759 117.724C221.055 117.905 221.211 118.579 221.228 119.746C221.26 120.947 221.104 121.802 220.759 122.312C220.677 122.443 220.29 122.493 219.6 122.46C218.883 122.393 218.167 122.311 217.454 122.213C215.414 121.934 214.345 121.892 214.247 122.09C214.115 122.402 214.008 123.134 213.926 124.285C213.827 125.436 213.836 126.143 213.951 126.406C214.017 126.587 215.965 126.883 219.797 127.294C221.704 127.492 223.069 127.656 223.892 127.788C225.207 127.969 225.964 128.141 226.161 128.306C226.687 128.701 227.057 129.876 227.271 131.833C227.485 133.872 227.279 135.089 226.654 135.484C225.635 136.109 221.77 136.347 215.061 136.199C208.203 136.051 204.462 135.509 203.837 134.571C203.311 133.749 203.426 128.61 204.183 119.154C204.939 109.814 205.597 104.609 206.156 103.54C206.699 102.504 210.267 102.307 216.862 102.948ZM251.642 118.71C253.352 118.941 254.298 118.834 254.479 118.39C254.66 117.962 254.66 116.795 254.479 114.887C254.314 113.029 254.142 112.009 253.961 111.828C253.747 111.614 253.13 111.606 252.111 111.804C251.091 112.001 250.458 112.231 250.211 112.494C249.915 112.84 249.586 113.703 249.225 115.084C248.879 116.466 248.764 117.354 248.879 117.748C249.011 118.176 249.932 118.497 251.642 118.71ZM252.826 102.677C257.167 102.973 259.84 103.655 260.843 104.724C261.879 105.842 263.022 110.948 264.272 120.042C265.521 129.103 265.801 134.045 265.11 134.867C264.42 135.69 262.783 136.125 260.202 136.175C259.294 136.195 258.387 136.146 257.488 136.027C256.666 135.928 256.189 135.813 256.057 135.681C255.729 135.352 255.359 133.79 254.947 130.995L254.849 130.205L254.725 129.441C254.658 128.989 254.592 128.537 254.528 128.084C254.364 127.179 254.216 126.661 254.084 126.53C253.837 126.267 252.999 126.127 251.568 126.11C250.203 126.11 249.323 126.201 248.929 126.382C248.731 126.464 248.444 126.966 248.065 127.887C247.934 128.232 247.761 128.692 247.547 129.268L247.276 130.033L246.98 130.822C245.977 133.568 245.22 134.933 244.711 134.917L243.872 134.867L242.836 134.769C242.065 134.7 241.299 134.584 240.542 134.423C238.667 134.045 237.59 133.511 237.311 132.82C236.916 131.883 237.722 126.85 239.728 117.724C241.783 108.432 243.329 103.573 244.365 103.145C245.878 102.537 248.698 102.381 252.826 102.677ZM293.453 114.862C291.331 118.233 290.378 120.19 290.591 120.733C290.706 121.029 291.233 121.728 292.17 122.83C292.466 123.192 292.918 123.726 293.527 124.433L294.267 125.296L295.031 126.184C297.663 129.276 298.904 131.101 298.756 131.661C298.608 132.285 297.465 133.247 295.327 134.547C293.124 135.895 291.644 136.454 290.887 136.224C290.526 136.125 289.917 135.525 289.062 134.423C288.655 133.89 288.26 133.347 287.878 132.795L287.237 131.907L286.62 131.019C285.568 129.523 284.803 128.495 284.326 127.936C283.602 127.097 283.158 126.818 282.994 127.097C282.698 127.574 282.492 128.914 282.377 131.118L282.303 132.351C282.287 132.845 282.27 133.223 282.254 133.486C282.188 134.259 282.114 134.76 282.032 134.991C281.95 135.237 281.506 135.394 280.7 135.459C279.943 135.525 279.055 135.492 278.036 135.361C275.52 135.065 273.941 134.53 273.3 133.757C272.708 133.034 272.831 127.887 273.67 118.316C274.492 108.975 275.1 103.984 275.495 103.343C275.857 102.751 277.189 102.529 279.491 102.677C281.744 102.825 283.002 103.145 283.265 103.639C283.331 103.754 283.347 104.255 283.315 105.143C283.315 105.407 283.298 105.826 283.265 106.401L283.216 107.117L283.191 107.808C283.076 110.225 283.199 111.302 283.561 111.039C283.759 110.907 284.186 110.414 284.844 109.559C284.959 109.411 285.107 109.214 285.288 108.967L285.781 108.326C286.192 107.783 286.546 107.322 286.842 106.944C288.733 104.576 290.016 103.441 290.69 103.54C291.315 103.622 292.532 104.387 294.341 105.834C296.215 107.364 297.087 108.432 296.955 109.041C296.906 109.32 296.511 110.052 295.771 111.236C295.541 111.598 295.171 112.174 294.661 112.963L294.069 113.9L293.453 114.862ZM319.526 102.948C325.857 103.557 329.508 104.206 330.478 104.897C330.906 105.209 331.202 106.558 331.366 108.942C331.53 111.36 331.391 112.856 330.947 113.432C330.667 113.793 328.587 113.497 324.706 112.544L323.621 112.272L322.56 112.026C321.93 111.866 321.297 111.718 320.661 111.582C319.394 111.302 318.687 111.228 318.539 111.36C318.227 111.639 317.955 112.404 317.725 113.654C317.528 114.838 317.487 115.611 317.602 115.972C317.684 116.219 318.613 116.548 320.389 116.959L321.401 117.181C321.812 117.263 322.116 117.329 322.313 117.378C322.938 117.526 323.308 117.641 323.423 117.724C323.719 117.905 323.875 118.579 323.892 119.746C323.925 120.947 323.769 121.802 323.423 122.312C323.341 122.443 322.955 122.493 322.264 122.46C321.547 122.393 320.831 122.311 320.118 122.213C318.079 121.934 317.01 121.892 316.911 122.09C316.78 122.402 316.673 123.134 316.59 124.285C316.492 125.436 316.5 126.143 316.615 126.406C316.681 126.587 318.63 126.883 322.461 127.294C324.369 127.492 325.734 127.656 326.556 127.788C327.872 127.969 328.628 128.141 328.825 128.306C329.352 128.701 329.722 129.876 329.935 131.833C330.149 133.872 329.944 135.089 329.319 135.484C328.299 136.109 324.435 136.347 317.725 136.199C310.868 136.051 307.127 135.509 306.502 134.571C305.975 133.749 306.091 128.61 306.847 119.154C307.603 109.814 308.261 104.609 308.82 103.54C309.363 102.504 312.932 102.307 319.526 102.948ZM353.172 113.333C351.544 113.218 350.615 113.284 350.384 113.53C350.154 113.777 349.998 114.681 349.916 116.244C349.817 117.789 349.891 118.612 350.138 118.71C350.253 118.76 350.615 118.801 351.223 118.834C351.848 118.883 352.497 118.899 353.172 118.883C354.997 118.867 356.017 118.71 356.23 118.414C356.444 118.102 356.494 117.362 356.378 116.194C356.28 115.093 356.115 114.353 355.885 113.974C355.704 113.662 354.8 113.448 353.172 113.333ZM343.774 136.643C341.636 135.788 340.378 135.024 339.999 134.349C339.638 133.691 340.024 129.186 341.159 120.832C342.31 112.428 343.19 107.947 343.798 107.388C344.653 106.566 347.613 106.073 352.678 105.908C357.678 105.744 360.531 105.974 361.238 106.599C362.06 107.355 363.104 108.942 364.371 111.36C365.785 114.024 366.418 115.923 366.27 117.058C366.122 118.11 365.119 119.73 363.261 121.917C362.593 122.703 361.902 123.468 361.189 124.211L360.374 125.025C360.161 125.239 359.988 125.403 359.856 125.518C359.544 125.798 360.12 127.508 361.583 130.649L362.003 131.537L362.422 132.425C362.734 133.099 362.981 133.634 363.162 134.029C363.639 135.147 363.869 135.838 363.853 136.101C363.77 136.841 362.767 137.638 360.843 138.493C358.968 139.332 357.645 139.653 356.872 139.455C356.592 139.373 356.148 138.822 355.54 137.803C355.234 137.291 354.938 136.773 354.652 136.249L354.183 135.361L353.714 134.473C352.037 131.282 350.993 129.638 350.582 129.539C350.121 129.457 349.636 130.6 349.126 132.968L348.978 133.659L348.83 134.349C348.753 134.782 348.655 135.21 348.534 135.632C348.304 136.52 348.066 137.063 347.819 137.26C347.293 137.704 345.944 137.498 343.774 136.643Z" fill="black"/>
    <defs>
        <linearGradient id="paint0_linear_558_3129" x1="233" y1="41.447" x2="143" y2="41.447" gradientUnits="userSpaceOnUse">
            <stop stop-color="#F44881"/>
            <stop offset="1" stop-color="#EC454F"/>
        </linearGradient>
        <linearGradient id="paint1_linear_558_3129" x1="145.5" y1="112.998" x2="184" y2="26.9981" gradientUnits="userSpaceOnUse">
            <stop stop-color="#D04070"/>
            <stop offset="1" stop-color="#EC454F"/>
        </linearGradient>
    </defs>
</svg>
